<svg xmlns="http://www.w3.org/2000/svg" viewBox="0 0 60 60"><path d="M59.1 3.7l-2.8-2.9c-1.2-1.2-3.1-1.2-4.2 0l-3.1 3.1H0v56h56V11.1l0.3-0.3 0 0 2.8-2.8C60.3 6.8 60.3 4.9 59.1 3.7zM20 36.8l3.2 3.2 -4.4 1.2L20 36.8zM52.1 12.2L47.8 8l1.4-1.4 4.2 4.2L52.1 12.2zM50.6 13.6L25.2 39.1l-4.2-4.2L46.4 9.4 50.6 13.6zM54 13.1v44.9H2v-52h44.9L18.8 34.1l-0.2 0.2 -2.1 7.8 -1.2 1.2c-0.4 0.4-0.4 1 0 1.4 0.2 0.2 0.5 0.3 0.7 0.3s0.5-0.1 0.7-0.3l1.2-1.2 7.8-2.1 26.4-26.3h0l0.4-0.4L54 13.1zM57.7 6.5l-2.8 2.8 -4.2-4.2 2.8-2.8c0.4-0.4 1-0.4 1.4 0l2.9 2.9C58.1 5.5 58.1 6.2 57.7 6.5z"/></svg>