<svg xmlns="http://www.w3.org/2000/svg" width="512" height="512" viewBox="0 0 191.1 191.1"><path d="M173.8 78.7c0-0.2 0-0.3 0-0.5 -0.5-2.9-0.3-5.9-0.3-8.8 0-2.2 0.3-4.5-0.8-6.5 -0.2-0.4-0.6-0.7-1-0.9 1.2-1.7 0.5-4.4-2.3-4.6 -12.7-1.1-25.3 2.2-38-0.2 0.1-0.2 0.2-0.5 0.2-0.7 0.1-8.3 0.5-16.3-2.1-24.2 -0.6-1.8-2.8-3-4.6-1.9 -11.9 7.8-20 20.2-31.4 28.5 -0.3-4.9-0.7-9.9-1.1-14.8 1-1.1 1.3-3.1 0.1-4.3 -4.6-4.9-38.6-26.5-57.4-32.7 21.9-1.2 43.8 1.8 65.5 4.8 11 1.5 22 2.7 33.2 3.4 12 0.7 8.4 19.2 8.7 28.6 0.1 4.6 7 4.6 7.1 0 0.3-11.1-0.2-22.2-2-33.2 -0.3-1.6-2.1-2.7-3.6-2.7C105 8 65.1-6.7 26.5 3.7c-0.9 0.2-1.3 1-1.3 1.7 -0.6 0.2-1.1 0.4-1.5 0.7 -0.1-0.2-0.2-0.5-0.3-0.8 -0.1-0.2-0.3-0.2-0.5-0.1 -5.6 4.9-4.9 13.9-5.3 20.9 -0.9 13-0.2 26.2 0.4 39.3 1.3 27.2 3.8 54.3 4 81.5 0 1.8 1.3 2.8 2.7 2.9 0 0.6 0.1 1.1 0.7 1.6 8.5 7.3 18.3 12.8 27.9 18.3 10.2 5.8 20.3 12.5 30.9 17.4 0.1 0.1 0.3 0.1 0.4 0.1 1.7 2.2 1.8 1.9 5.1 3.3 2.1 0.9 4.7-0.1 4.7-2.7 0.1-14.1 0.4-28.1 0.5-42 0.1 0 0.1 0 0.2 0 16.9-0.1 33.8 0.4 50.7 0.6 1.9 0 3.5-1.6 3.5-3.5 0.2-15.3 2.5-31.5 0.4-46.7 -0.4-2.9-5.5-2.9-5.9 0 -2.1 14-1.7 28.9-1.6 43.1 -15.7-0.1-31.5-0.8-47.2 0.6 -0.1 0-0.1 0-0.1 0 0.2-19.8 0.2-39.6-0.5-59.4 9 8.7 20.2 16.1 30.3 23 2.1 1.4 4.6-0.5 4.7-2.7 0.2-6.1 1.5-12 1.9-18.1 5.8 1.8 12.1 1.6 18.2 1.3 6.7-0.3 16 0.3 22.3-2.2C173.8 81.7 174.3 80 173.8 78.7zM56.6 24.9c10.3 5.9 20.7 14.6 31.8 19.1 -0.4 3.1-0.6 6.1-0.7 9.2C70 37.1 45.8 26.8 25.4 14.7c0 0-0.1 0-0.1 0 0-2-0.2-4-0.7-5.9C35.3 10.4 47.6 19.7 56.6 24.9zM87.5 57.9c0 1.6 0 3.1 0 4.7C65.8 49.9 44 38.5 24.8 21.9c0.2-1.8 0.4-3.7 0.5-5.5C45.9 30.2 66.5 44.8 87.5 57.9zM23.9 30.9c0-1.9 0.3-3.9 0.5-6 9.1 8.2 18.9 15.6 29 22.6C63.8 54.8 75.4 63.3 87.6 67.7c0 1.6 0.1 3.2 0.2 4.8C68 58.2 45.9 44.6 24.3 33.5c-0.1-0.1-0.3-0.1-0.4 0C23.9 32.6 23.9 31.7 23.9 30.9zM23.9 34.4c7.9 7.8 18.5 13.3 27.8 19.2 11.8 7.5 23.5 14.9 34.7 23.1 0.5 0.4 1.1 0.5 1.6 0.3 0.1 1 0.1 2 0.2 3.1 -4.3-2.9-11.2-5.2-13.8-6.5 -16.7-8.7-33.7-16.6-50.5-25.2C23.8 43.7 23.8 39 23.9 34.4zM23.9 51.6C38.9 60.2 54.7 67.4 69.9 75.6c2.9 1.6 5.8 3.2 8.7 4.7 2.2 1.1 4.4 2.3 6.6 3.5 4.1 2.2 1.9 0.3 3.1-0.4 0 0.1 0 0.2 0 0.2 -0.6 0.7-0.7 1.9 0.2 2.4 0.2 3.4 0.5 6.9 0.7 10.3C73.2 83.4 28.4 54.2 24.2 61.7c0 0.1 0 0.1-0.1 0.2C24 58.5 24 55.1 23.9 51.6zM24.2 62.5c0.1 0.2 0.3 0.4 0.6 0.5 24.4 8.2 42.8 26.6 64.8 38.9 0.1 1.6 0.2 3.2 0.2 4.8 0 0.6 0 1.1 0 1.7 -21.2-14.2-42.5-29.1-65.5-40.4C24.3 66.3 24.3 64.4 24.2 62.5zM28.1 148c-0.1 0-0.1 0-0.2-0.1 0.1-0.3 0.2-0.6 0.2-0.9 0-1.1 0-2.2-0.1-3.2 2.7 3.4 5.7 6.5 8.9 9.5C34.1 151.6 31.1 149.8 28.1 148zM88.3 182.9c-0.8-0.6-1.5-0.8-2.2-0.6 -0.3-0.2-0.5-0.4-0.8-0.6 -16.8-16.5-40.6-24.8-57.3-42 0-0.9-0.1-1.9-0.1-2.8 9.8 7.2 20.2 13.5 30.6 19.7 10.2 6.1 19.8 13.2 29.9 19.2C88.4 178.2 88.3 180.5 88.3 182.9zM88.6 171.9c-16.4-16.1-41.4-25.6-60.8-37.5 -0.1-3-0.2-6-0.4-9 16.5 17 40.9 29.2 61.3 40.4 0 0 0 0 0 0C88.7 167.8 88.6 169.8 88.6 171.9zM88.9 162.3c-7.4-6.7-17.1-11.2-25.7-15.9 -12.7-6.9-25-14-35.8-23.7 -0.1-1.5-0.2-2.9-0.2-4.4 20.8 12.5 44.1 21.5 62 38.2C89 158.4 89 160.4 88.9 162.3zM89.3 151.7c-6-7.4-18.1-12.6-25.5-16.8 -12-6.8-24.4-13.1-36.9-19.1 -0.2-3.6-0.4-7.3-0.6-10.9 8.2 9 18.8 15.8 29.1 22.1 9.7 6 22.5 15 34.1 17.2C89.5 146.8 89.4 149.2 89.3 151.7zM89.7 140.3c-8.7-5.8-20.1-9.5-29.2-14.5C48.4 119.3 37 111.6 26.7 102.5c-0.2-0.1-0.3-0.2-0.5-0.2 -0.1-1.3-0.1-2.7-0.2-4 20.5 13.4 41.2 29.3 63.8 38.5C89.8 137.9 89.8 139.1 89.7 140.3zM89.9 133.3c-20.8-13.1-42.5-25.4-64-37.3 -0.2-2.7-0.3-5.4-0.4-8.1 21.6 13.1 41.3 32 64.3 41.8 0.1 0 0.1 0 0.2 0C89.9 130.9 89.9 132.1 89.9 133.3zM90 126.6c-19.4-15.3-42.3-30.1-64.7-40.7 -0.1-2.5-0.3-4.9-0.4-7.4 11.3 6.3 22 13.7 32.4 21.4 10.4 7.7 20.7 17.4 32.7 22.7C90 123.9 90 125.3 90 126.6zM63 99.7C50.7 91 38.3 82.8 24.8 76.2c-0.1-1.8-0.2-3.6-0.3-5.4 0-0.1 0-0.1 0-0.2 22.4 13.4 43.5 28.6 65.4 42.8 0 1.8 0.1 3.6 0.1 5.3C81.7 111.7 71.9 105.9 63 99.7zM168 63.3c-0.9 1.9-0.6 3.9-0.4 6 0 0.4 0.1 0.8 0.1 1.3 -1.4-0.9-2.9-1.7-4.2-2.6 -1.7-1.2-3.3-2.5-4.9-3.8C161.8 64 164.9 63.7 168 63.3zM124.6 38.2c1 5.2 0.9 10.4 0.8 15.7 -3.1-2.5-6.2-5.1-9.3-7.6C118.9 43.4 121.7 40.6 124.6 38.2zM123.8 95.5c-9.4-6.8-18.8-14.6-29.3-19.1 -0.1-1.4-0.1-2.8-0.2-4.1 4.9 3.6 9.7 7.3 14.7 10.9 4.5 3.3 9.7 7.3 15.3 8.8C124.1 93.1 123.9 94.3 123.8 95.5zM124.6 88.9c-4.4-3.1-9.7-5.4-14.1-8.4 -5.6-3.7-10.9-7.7-16.4-11.4 -0.1-1.8-0.2-3.7-0.3-5.5 0.9-0.3 1.7-0.6 2.5-1 8.9 6.7 18.2 16.3 28.8 20.1C125.1 84.9 124.9 86.9 124.6 88.9zM136.8 79.1c-4.6-4.5-11.6-8.1-16.4-11.4 -4.8-3.3-11.3-9.2-17.3-8.6 -0.1 0-0.2 0.2-0.1 0.3 4.7 4.2 10.6 7.4 15.7 11.2 3 2.2 6.3 5.3 9.8 8 -0.9 0-1.8 0.4-2.4 1 -4.7-3-9.7-5.5-14.3-8.7 -4.4-3.1-8.7-6.3-13.1-9.4 3.8-2.1 7.2-4.9 10.4-8.1 9.3 10.4 22 17.5 33.6 25.4C140.7 78.9 138.8 79 136.8 79.1zM148.1 78.5c-12.2-9.6-26-16.1-37.2-26.8 1.3-1.3 2.6-2.6 3.9-4 3.6 3.4 7.3 6.7 10.9 10.1 0.3 0.5 0.6 0.8 1.1 1.1 0.1 0.4 0.4 0.7 0.8 0.9 0.2 0.1 0.4 0.1 0.5 0.2 7 6.4 14.2 12.7 21.9 18.3C149.4 78.4 148.8 78.4 148.1 78.5zM155.3 77.7c-6.5-4.9-12.8-9.8-19.1-14.9 3.2 0.8 6.6 1.2 10 1.4 -0.5 0.5-0.7 1.3-0.1 1.8 2.8 2.5 5.8 4.7 8.9 6.9 1.8 1.3 3.6 2.7 5.5 4C158.7 77.2 157 77.5 155.3 77.7zM166.2 76.5c-2.5-2.2-5.7-3.8-8.4-5.5 -3.3-2.1-6.6-4.3-9.8-6.6 2.5 0.1 4.9 0.1 7.4 0 1.8 1.9 3.7 3.6 5.7 5.3 2 1.6 4.3 3.8 6.9 4.5 0.1 0.8 0.2 1.6 0.3 2.4C167.7 76.5 166.9 76.5 166.2 76.5z" fill="#FFF"/></svg>