<svg xmlns="http://www.w3.org/2000/svg" viewBox="0 0 512 512"><style>.a{fill:#BFAB92;}.b{fill:#D9CCBC;}.c{fill:#EDE6DE;}.d{fill:#E0E0E2;}.e{fill:#3E3D43;}.f{fill:#57565C;}.g{fill:#898890;}</style><path d="M430.1 178.7c0 28.2-7.1 56.3-20.7 81.1 -6.8 12.3-16.6 22.1-23.9 33.7 -8.8 13.8-18 27.2-28 40.1 -5 6.4-8.5 11.3-11 19.1 -2.5 7.9-4.2 16.1-5.1 24.4H181.3c-3.2-29.4-16.4-56.9-37.3-77.2 -33.1-32.1-51.3-75.1-51.3-121.2 0-92.2 75.1-167.9 167.3-168.6h1.4c44.8 0 87 17.3 118.8 48.9 5 5 9.7 10.2 14 15.7C417.5 104.2 430.1 140.5 430.1 178.7z" fill="#FCDF68"/><path d="M430.1 178.7c0 28.2-7.1 56.3-20.7 81.1 -6.8 12.3-16.6 22.1-23.9 33.7 -8.8 13.8-18 27.2-28 40.1 -5 6.4-8.5 11.3-11 19.1 -2.5 7.9-4.2 16.1-5.1 24.4H237.4c-5.2-8.2-11.3-15.8-18.3-22.6 -33.1-32.1-51.3-75.1-51.3-121.2 0-92.2 75.1-167.9 167.3-168.6h1.4c20 0 39.5 3.5 57.7 10.1 10.8 13.7 19.2 28.8 25.2 44.8C426.4 138.2 430.1 158.2 430.1 178.7z" fill="#FFD833"/><path d="M430.1 178.7c0 28.2-7.1 56.3-20.7 81.1 -6.8 12.3-16.6 22.1-23.9 33.7 -8.8 13.8-18 27.2-28 40.1 -5 6.4-8.5 11.3-11 19.1 -2.5 7.9-4.2 16.1-5.1 24.4h-94.5c-17.6-27.1-27-58.6-27-91.8 0-92.2 75.1-167.9 167.3-168.6h1.4c10.5 0 20.8 0.9 30.9 2.8C426.4 138.2 430.1 158.2 430.1 178.7z" fill="#BC9A0D"/><path d="M256.4 204.1c0 0.3 0 0.6-0.1 0.9v68.7c0 16.8-10.3 31.1-26.3 36.4 -4.1 1.4-8.4 2.1-12.5 2.1 -0.5 0-1.1 0-1.6 0 -10.9-0.5-21.2-5.7-28.2-14.9 0-0.1-0.1-0.1-0.1-0.2 -10.8-5.7-19.1-15.4-23.1-26.9 -24.5-7.1-41.8-29.9-41.8-55.7 0-6.1 0.9-12.2 2.8-17.9 -7.6-9.1-11.8-20.5-11.8-32.5 0-19.1 10.8-36.5 27.5-45.1 -0.2-1.7-0.2-3.3-0.2-5 0-12.8 4.8-25 13.5-34.4 7.6-8.2 17.6-13.7 28.5-15.6 0.4-0.8 0.9-1.5 1.3-2.2 7.3-11.3 19.8-18.3 33.6-18.3 19.6 0 35.9 14.8 38.1 33.9h0c0 0.1 0 0.1 0 0.1 0.1 0.6 0.1 1.3 0.2 1.9 0 0.1 0 0.2 0 0.3 0 0.7 0.1 1.4 0.1 2.2v122.4L256.4 204.1 256.4 204.1z" class="a"/><path d="M221.6 222.4c0 0.3 0 0.6-0.1 0.9v68.7c0 4.6-0.8 9.1-2.3 13.2 -3-2.2-5.8-4.8-8.1-7.9 0-0.1-0.1-0.1-0.1-0.2 -10.8-5.7-19.1-15.4-23.1-26.9 -24.5-7.1-41.8-29.9-41.8-55.7 0-10.2 2.7-19.6 5.7-29.2 -0.3 0.9-6.3-0.3-7-0.5 -3.1-0.8-3.9-1.4-4.9-4.3 -1.8-5.3-2.7-10.8-2.7-16.4 0-10.3 3.3-20.6 9.2-29.1 0.6-0.9 1.4-2.4 2.3-3.1 1.6-1.2 1-0.9 2.8 0.3 2.6 1.6 4.9 4 7.3 6 4.7 3.9 9.5 7.7 14.2 11.6 -12-21.6-12.6-51.3 4.9-70.2 6.1-6.6 13.6-11.3 22-14 11.5 5.6 19.8 16.8 21.4 30 0 0.1 0 0.1 0 0.1 0.1 0.6 0.1 1.3 0.2 1.9 0 0.1 0 0.2 0 0.3 0 0.7 0.1 1.4 0.1 2.2v122.4L221.6 222.4 221.6 222.4z" class="b"/><path d="M266.4 204.1c0 0.3 0 0.6 0.1 0.9v68.7c0 16.8 10.3 31.1 26.3 36.4 4.1 1.4 8.4 2.1 12.5 2.1 0.5 0 1.1 0 1.6 0 10.9-0.5 21.2-5.7 28.2-14.9 0-0.1 0.1-0.1 0.1-0.2 10.8-5.7 19.1-15.4 23.1-26.9 24.5-7.1 41.8-29.9 41.8-55.7 0-6.1-0.9-12.2-2.8-17.9 7.6-9.1 11.8-20.5 11.8-32.5 0-19.1-10.8-36.5-27.5-45.1 0.2-1.7 0.2-3.3 0.2-5 0-12.8-4.8-25-13.5-34.4 -7.6-8.2-17.6-13.7-28.5-15.6 -0.4-0.8-0.9-1.5-1.3-2.2 -7.3-11.3-19.8-18.3-33.6-18.3 -19.6 0-35.9 14.8-38.1 33.9h0c0 0.1 0 0.1 0 0.1 -0.1 0.6-0.1 1.3-0.2 1.9 0 0.1 0 0.2 0 0.3 0 0.7-0.1 1.4-0.1 2.2v122.4L266.4 204.1 266.4 204.1z" class="a"/><path d="M301.2 222.4c0 0.3 0 0.6 0.1 0.9v68.7c0 4.6 0.8 9.1 2.3 13.2 3-2.2 5.8-4.8 8.1-7.9 0-0.1 0.1-0.1 0.1-0.2 10.8-5.7 19.1-15.4 23.1-26.9 24.5-7.1 41.8-29.9 41.8-55.7 0-10.2-2.7-19.6-5.7-29.2 0.3 0.9 6.3-0.3 7-0.5 3.1-0.8 3.9-1.4 4.9-4.3 1.8-5.3 2.7-10.8 2.7-16.4 0-10.3-3.3-20.6-9.2-29.1 -0.6-0.9-1.4-2.4-2.3-3.1 -1.6-1.2-1-0.9-2.8 0.3 -2.6 1.6-4.9 4-7.3 6 -4.7 3.9-9.5 7.7-14.2 11.6 12-21.6 12.6-51.3-4.8-70.2 -6.1-6.6-13.6-11.3-22-14 -11.5 5.6-19.8 16.8-21.4 30 0 0.1 0 0.1 0 0.1 -0.1 0.6-0.1 1.3-0.2 1.9 0 0.1 0 0.2 0 0.3 0 0.7-0.1 1.4-0.1 2.2v122.4L301.2 222.4 301.2 222.4z" class="b"/><circle cx="325.9" cy="135.4" r="11.8" class="c"/><circle cx="319.2" cy="86.6" r="4.3" class="d"/><circle cx="365.1" cy="167.2" r="4.5" class="c"/><circle cx="339.6" cy="191.9" r="8" class="c"/><circle cx="332.5" cy="251.4" r="5.2" class="c"/><circle cx="312" cy="277" r="5.5" class="c"/><path d="M320.6 477.6c-3.3 4.1-6.9 7.7-10.9 10.7 -9.1 6.8-19.8 10.7-31 10.7h-34.6c-11.2 0-21.9-3.8-31-10.7 -4-3-7.6-6.6-10.9-10.7H320.6z" class="e"/><path d="M309.7 488.3c-9.1 6.8-19.8 10.7-31 10.7h-34.6c-11.2 0-21.9-3.8-31-10.7H309.7z" class="f"/><rect x="179.4" y="382.2" width="163.9" height="91" class="e"/><rect x="205.8" y="394.4" width="137.5" height="78.8" class="f"/><rect x="234.3" y="426.7" width="92.4" height="12.8" class="g"/><rect x="234.3" y="457.9" width="92.4" height="12.8" class="g"/><path d="M387.6 52C353.4 18.1 308.1-0.4 259.9 0 162 0.8 82.3 81.1 82.2 179.1c0 49 19.3 94.7 54.5 128.7 20.6 20 32.4 48.3 32.4 77.8v94.3h27.2C207.3 499.8 226.6 512 247.7 512h27.4c21.1 0 40.4-12.2 51.3-32.1h27.2v-94.8c0-29.3 11.8-57 33.2-78 1.5-1.5 3-3 4.5-4.6 0.7-0.7 1.1-1.1 1.2-1.3l0 0c31-33.3 48-76.3 48-122.1C440.5 131 421.7 85.9 387.6 52zM275.1 496.8h-27.4c-12.7 0-24.7-6.3-33.1-16.9h93.6C299.7 490.5 287.8 496.8 275.1 496.8zM338.4 464.6H184.4v-16.5H338.4L338.4 464.6 338.4 464.6zM338.4 432.9H184.4v-15.1H338.4L338.4 432.9 338.4 432.9zM338.4 402.6H184.4v-15.5H338.4L338.4 402.6 338.4 402.6zM380.7 291.5c-4.6 4.7-40.4 39.3-98.8 41.6l0.6 15.2c27.8-1.1 50.8-8.7 68.4-17.5 -6.3 12.8-10.3 26.6-11.8 40.9H183.6c-3.1-28.5-16-55.3-36.3-75 -32.2-31.2-49.9-73-49.9-117.8 0-89.6 73-163.1 162.6-163.8 0.4 0 0.9 0 1.3 0 43.6 0 84.5 16.9 115.4 47.6 31.3 31 48.5 72.3 48.5 116.4C425.3 221.4 409.5 261 380.7 291.5z"/><path d="M187.6 297c0 0.1 0.1 0.1 0.1 0.2 7.4 9.7 18.3 14.9 29.8 14.9 4.1 0 8.3-0.7 12.5-2.1 16-5.4 26.3-19.7 26.3-36.4v-68.7c0-0.3 0.1-0.6 0.1-0.9l-0.1 0V81.7c0-0.7 0-1.5-0.1-2.2 0-0.1 0-0.2 0-0.3 0-0.6-0.1-1.3-0.2-1.9 0 0 0-0.1 0-0.1l0 0c-2.2-19-18.5-33.9-38.1-33.9 -14.7 0-27.9 7.9-34.9 20.5 -10.9 1.9-20.9 7.3-28.5 15.6 -8.7 9.4-13.5 21.6-13.5 34.4 0 1.7 0.1 3.3 0.2 5 -16.7 8.6-27.5 26-27.5 45.1 0 12 4.1 23.4 11.8 32.5 -1.9 5.8-2.8 11.8-2.8 17.9 0 25.9 17.3 48.6 41.8 55.7C168.5 281.6 176.8 291.4 187.6 297zM137.9 214.4c0-5.8 1.1-11.4 3.4-16.7l0.1-0.1c0.2-0.4 3.2-6.6 13.7-9.1l-3.5-14.8c-8.1 1.9-13.6 5.4-17.4 8.8 -3.4-5.5-5.2-11.8-5.2-18.5 0-12.2 6.4-23.5 16.4-29.9 4.7 10.2 15.5 25.8 39.6 30.2l2.7-15c-24.3-4.4-29.8-24.6-30.5-27.1l-0.1-0.4c-0.6-2.6-0.9-5.3-0.9-7.9 0-18.3 14.3-33.8 32.5-35.4l4.6-0.4 1.8-4.3c3.9-9.3 12.8-15.2 22.9-15.2 11.9 0 21.6 9 23 20.5 0 0.4 0.1 0.8 0.1 1.3 0 0 0 0 0 0.1 0 0.5 0 0.9 0 1.4 0 12.8-10.4 23.2-23.2 23.2 -2.6 0-5.2-0.4-7.6-1.3l-5 14.4c4.1 1.4 8.3 2.1 12.6 2.1 8.7 0 16.7-2.9 23.2-7.8v91.8c-0.8 8.4-7.9 14.9-16.4 14.9 -9 0-16.3-7.1-16.5-16.1l-15.2 0.4c0.5 17.3 14.4 30.9 31.8 30.9 6 0 11.6-1.7 16.4-4.6v43.9c0 12.3-8.2 19.4-15.9 22 -7.5 2.5-18.1 1.8-25.3-7.7 -0.3-0.4-0.7-0.9-1-1.4l-1.1-1.6 -1.8-0.8c-9-4.2-15.6-12.5-17.9-22.1l-0.2-0.9c-0.4-2.1-1.6-10.2 2.1-21.1l-14.4-4.9c-2.3 6.8-3.2 12.9-3.4 17.8C147.6 245.9 137.9 231 137.9 214.4z"/><rect x="159.6" y="205.4" width="13" height="15.2"/><rect x="202.3" y="245.6" width="13" height="15.2"/><rect x="205.3" y="168.7" width="13" height="15.2"/><rect x="173.3" y="102.4" width="13" height="15.2"/><path d="M266.4 205v68.7c0 16.8 10.3 31.1 26.3 36.4 4.1 1.4 8.4 2.1 12.5 2.1 11.5 0 22.5-5.3 29.8-14.9 0-0.1 0.1-0.1 0.1-0.2 10.8-5.7 19.1-15.4 23.1-26.9 24.5-7.1 41.8-29.8 41.8-55.7 0-6.1-0.9-12.2-2.8-17.9 7.6-9.1 11.8-20.5 11.8-32.5 0-19.1-10.8-36.5-27.5-45.1 0.2-1.7 0.2-3.3 0.2-5 0-12.8-4.8-25-13.5-34.4 -7.6-8.2-17.6-13.7-28.5-15.6 -7-12.6-20.3-20.5-34.9-20.5 -19.6 0-35.9 14.8-38.1 33.9l0 0c0 0 0 0.1 0 0.1 -0.1 0.6-0.1 1.3-0.2 1.9 0 0.1 0 0.2 0 0.3 0 0.7-0.1 1.4-0.1 2.2v122.4l-0.1 0C266.4 204.4 266.4 204.7 266.4 205zM304.8 58.6c10 0 19 6 22.9 15.2l1.8 4.3 4.6 0.4c18.2 1.6 32.5 17.1 32.5 35.4 0 2.6-0.3 5.3-0.9 7.9l-0.1 0.5c-0.7 2.8-6.4 22.6-30.4 27l2.7 15c24-4.4 34.9-20 39.6-30.2 10 6.4 16.4 17.7 16.4 29.9 0 6.6-1.8 13-5.2 18.5 -3.7-3.4-9.3-6.9-17.4-8.8l-3.5 14.8c10.5 2.5 13.5 8.7 13.7 9.1l0.1 0.1c2.2 5.3 3.4 10.9 3.4 16.7 0 16.6-9.7 31.5-24.1 38.5 -0.2-4.9-1.1-10.9-3.4-17.8l-14.4 4.9c3.7 10.9 2.5 19 2.1 21.1l-0.2 0.9c-2.3 9.6-8.9 17.9-17.9 22.1l-1.8 0.8 -1.1 1.6c-0.3 0.5-0.7 0.9-1 1.4 -7.2 9.5-17.8 10.2-25.3 7.7 -7.7-2.6-15.9-9.7-15.9-22V229.7c4.8 2.9 10.4 4.6 16.4 4.6 17.4 0 31.3-13.6 31.8-30.9l-15.2-0.4c-0.2 9-7.5 16.1-16.5 16.1 -8.5 0-15.6-6.5-16.4-14.9v-91.8c6.4 4.9 14.5 7.8 23.2 7.8 4.3 0 8.6-0.7 12.6-2.1l-5-14.4c-2.4 0.9-5 1.3-7.6 1.3 -12.8 0-23.2-10.4-23.2-23.2 0-0.5 0-0.9 0-1.4 0 0 0 0 0-0.1 0-0.4 0.1-0.8 0.1-1.3C283.2 67.6 293 58.6 304.8 58.6z"/><rect x="350.1" y="205.4" width="13" height="15.2"/><rect x="307.4" y="245.6" width="13" height="15.2"/><rect x="304.4" y="168.7" width="13" height="15.2"/><rect x="336.4" y="102.4" width="13" height="15.2"/><rect x="245.9" y="333.3" width="17" height="15.2"/><rect x="451" y="310.8" width="13" height="15.2"/><rect x="21.2" y="238.5" width="13" height="15.2"/><rect x="477.8" y="163.6" width="13" height="15.2"/><rect x="89.8" y="343.1" width="13" height="15.2"/><rect x="477.8" y="55.9" width="13" height="15.2"/><rect x="102.9" y="20.3" width="13" height="15.2"/><rect x="411.8" y="20.3" width="13" height="15.2"/><rect x="52.2" y="87.7" width="13" height="15.2"/><circle cx="196.9" cy="135.4" r="11.8" class="c"/><circle cx="203.5" cy="86.6" r="4.3" class="d"/><circle cx="157.6" cy="167.2" r="4.5" class="c"/><circle cx="183.2" cy="191.9" r="8" class="c"/><circle cx="190.3" cy="251.4" r="5.2" class="c"/><circle cx="210.7" cy="277" r="5.5" class="c"/></svg>
 